<?xml version="1.0" encoding="utf-8"?>
<!-- Generator: Adobe Illustrator 18.1.0, SVG Export Plug-In . SVG Version: 6.00 Build 0)  -->
<svg version="1.1" id="Layer_1" xmlns="http://www.w3.org/2000/svg" xmlns:xlink="http://www.w3.org/1999/xlink" x="0px" y="0px"
	 viewBox="0 0 140 93" enable-background="new 0 0 140 93" xml:space="preserve">
<g>
	<g>
		<path fill="#736458" d="M0,60.8h3.1L8,76.2c0.3,1.1,0.4,1.4,0.5,2.5c0.3-1.5,0.4-1.9,0.9-3.3l5.5-14.6h2.6l5.7,15.5
			c0.4,1.1,0.4,1.3,0.6,2.3c0.2-1.3,0.2-1.5,0.6-2.8l4.7-15.1h3.1l-6.8,20.6h-3.3l-5.1-14c-0.6-1.6-0.7-2-1-3.6
			c-0.3,1.5-0.4,1.8-0.9,3.2l-5.3,14.4H6.7L0,60.8z"/>
		<path fill="#736458" d="M34.9,60.8h19.1v2.5H37.9v6.2h15.7v2.4H37.9v6.9h16.9v2.5H34.9V60.8z"/>
		<path fill="#736458" d="M59.4,60.8h14.1c1.8,0,4,0.1,5.8,1.7c0.7,0.6,1.8,1.9,1.8,4.4c0,4.9-4.2,5.6-5.6,5.8l7.6,8.7h-3.8l-7-8.2
			h-10v8.2h-2.9V60.8z M62.3,63.3v7.5h10.2c1.6,0,3.7,0,4.8-1.6c0.5-0.7,0.7-1.5,0.7-2.2c0-0.8-0.2-1.6-0.6-2.2
			c-0.9-1.5-2.4-1.5-3.8-1.5H62.3z"/>
		<path fill="#736458" d="M102.6,60.8h3.2l-9.8,20.6h-3l-9.9-20.6h3.3l7.2,15.2c0.5,1.1,0.6,1.4,1,2.6c0.2-1,0.3-1.3,0.8-2.2
			L102.6,60.8z"/>
		<path fill="#736458" d="M109.5,60.8h3v20.6h-3V60.8z"/>
		<path fill="#736458" d="M117.5,60.8h2.9v11l14.9-11h4.3l-10.5,7.8L140,81.4h-3.9l-9.4-11.1l-6.4,4.7v6.4h-2.8V60.8z"/>
	</g>
	<g>
		<path fill="#736458" d="M23.1,88.6l-0.5,0.1c-0.2-0.9-0.7-1.4-1.5-1.4c-0.5,0-0.9,0.2-1.3,0.7c-0.3,0.5-0.5,1.1-0.5,1.9
			c0,1.7,0.6,2.6,1.9,2.6c0.4,0,0.7-0.1,1-0.4c0.3-0.3,0.4-0.6,0.4-1v-0.5h-1.5v-0.4h2v2.8h-0.5v-0.6h0c-0.2,0.2-0.4,0.4-0.6,0.5
			c-0.2,0.1-0.6,0.2-1,0.2c-0.7,0-1.2-0.3-1.6-0.8c-0.4-0.5-0.6-1.3-0.6-2.3c0-0.9,0.2-1.7,0.7-2.3c0.4-0.5,1-0.8,1.6-0.8
			c0.5,0,1,0.2,1.3,0.5C22.8,87.7,23,88.1,23.1,88.6z"/>
		<path fill="#736458" d="M27.3,90.1l1.5,2.8h-0.6l-1.4-2.7h-1.5v2.7h-0.5V87h2c0.6,0,1,0.1,1.3,0.4c0.3,0.3,0.5,0.7,0.5,1.2
			C28.6,89.4,28.1,89.9,27.3,90.1z M25.2,87.4v2.3h1.5c0.4,0,0.7-0.1,0.9-0.3c0.2-0.2,0.3-0.5,0.3-0.9c0-0.8-0.4-1.2-1.3-1.2H25.2z"
			/>
		<path fill="#736458" d="M33.8,92.9h-3.6V87h3.4v0.4h-2.9v2.2h2.1v0.4h-2.1v2.4h3V92.9z"/>
		<path fill="#736458" d="M34.8,92.9V87h0.9l2.8,4.9h0V87h0.5v5.9h-0.6l-3.2-5.5h0v5.5H34.8z"/>
		<path fill="#736458" d="M40.6,87.4V87h3.5v0.5l-3.1,5h3.2v0.4h-3.8v-0.4l3.1-5H40.6z"/>
		<path fill="#736458" d="M48.9,92.9h-3.6V87h3.4v0.4h-2.9v2.2H48v0.4h-2.1v2.4h3V92.9z"/>
		<path fill="#736458" d="M49.9,92.9V87h0.5v5.5h2.7v0.4H49.9z"/>
		<path fill="#736458" d="M56,86.9c0.7,0,1.3,0.3,1.7,0.9c0.4,0.6,0.6,1.3,0.6,2.2c0,0.9-0.2,1.6-0.6,2.2c-0.4,0.6-1,0.9-1.7,0.9
			c-0.7,0-1.3-0.3-1.7-0.9c-0.4-0.6-0.6-1.3-0.6-2.2c0-0.9,0.2-1.6,0.6-2.2C54.7,87.2,55.3,86.9,56,86.9z M56,92.6
			c0.6,0,1-0.2,1.3-0.7c0.3-0.5,0.5-1.1,0.5-1.9c0-0.8-0.2-1.5-0.5-1.9c-0.3-0.4-0.8-0.7-1.3-0.7c-0.6,0-1,0.2-1.3,0.7
			c-0.3,0.5-0.5,1.1-0.5,1.9c0,0.8,0.2,1.5,0.5,1.9S55.4,92.6,56,92.6z"/>
		<path fill="#736458" d="M61.5,86.9c0.7,0,1.3,0.3,1.7,0.9c0.4,0.6,0.6,1.3,0.6,2.2c0,0.9-0.2,1.6-0.6,2.2c-0.4,0.6-1,0.9-1.7,0.9
			c-0.7,0-1.3-0.3-1.7-0.9c-0.4-0.6-0.6-1.3-0.6-2.2c0-0.9,0.2-1.6,0.6-2.2C60.2,87.2,60.8,86.9,61.5,86.9z M61.5,92.6
			c0.6,0,1-0.2,1.3-0.7c0.3-0.5,0.5-1.1,0.5-1.9c0-0.8-0.2-1.5-0.5-1.9c-0.3-0.4-0.8-0.7-1.3-0.7c-0.6,0-1,0.2-1.3,0.7
			c-0.3,0.5-0.5,1.1-0.5,1.9c0,0.8,0.2,1.5,0.5,1.9S60.9,92.6,61.5,92.6z"/>
		<path fill="#736458" d="M64.5,91.4l0.5-0.2c0.2,0.9,0.8,1.3,1.7,1.3c0.4,0,0.7-0.1,0.9-0.3c0.2-0.2,0.3-0.5,0.3-0.9
			c0-0.4-0.3-0.8-0.8-1c-0.5-0.2-1-0.4-1.6-0.6c-0.6-0.3-0.8-0.7-0.8-1.3c0-0.5,0.2-0.8,0.5-1.1c0.3-0.3,0.7-0.4,1.3-0.4
			c0.5,0,0.9,0.1,1.2,0.4c0.3,0.2,0.6,0.6,0.7,1.1l-0.5,0.1c-0.2-0.7-0.7-1.1-1.4-1.1c-0.4,0-0.6,0.1-0.9,0.3
			c-0.2,0.2-0.3,0.5-0.3,0.8c0,0.2,0.1,0.4,0.2,0.6c0.2,0.2,0.5,0.4,1,0.6c0.8,0.3,1.4,0.6,1.6,0.9c0.3,0.2,0.4,0.6,0.4,1
			c0,0.5-0.2,0.9-0.5,1.2c-0.3,0.3-0.8,0.4-1.3,0.4c-0.6,0-1-0.1-1.4-0.4C64.9,92.4,64.7,92,64.5,91.4z"/>
		<path fill="#736458" d="M73.1,92.9L71.2,87h0.6l1.6,5.2h0l1.7-5.2h0.6l-2,5.9H73.1z"/>
		<path fill="#736458" d="M80.1,92.9h-3.6V87H80v0.4h-2.9v2.2h2.1v0.4h-2.1v2.4h3V92.9z"/>
		<path fill="#736458" d="M83.8,90.1l1.5,2.8h-0.6l-1.4-2.7h-1.5v2.7h-0.5V87h2c0.6,0,1,0.1,1.3,0.4c0.3,0.3,0.5,0.7,0.5,1.2
			C85,89.4,84.6,89.9,83.8,90.1z M81.7,87.4v2.3h1.5c0.4,0,0.7-0.1,0.9-0.3c0.2-0.2,0.3-0.5,0.3-0.9c0-0.8-0.4-1.2-1.3-1.2H81.7z"/>
		<path fill="#736458" d="M89.3,90.1l1.5,2.8h-0.6l-1.4-2.7h-1.5v2.7h-0.5V87h2c0.6,0,1,0.1,1.3,0.4c0.3,0.3,0.5,0.7,0.5,1.2
			C90.5,89.4,90.1,89.9,89.3,90.1z M87.2,87.4v2.3h1.5c0.4,0,0.7-0.1,0.9-0.3c0.2-0.2,0.3-0.5,0.3-0.9c0-0.8-0.4-1.2-1.3-1.2H87.2z"
			/>
		<path fill="#736458" d="M91.5,92.9l1.9-5.9h0.8l1.9,5.9h-0.6L95,91h-2.3l-0.6,1.9H91.5z M92.9,90.5h2l-1-3.1h0L92.9,90.5z"/>
		<path fill="#736458" d="M96.7,91.4l0.5-0.2c0.2,0.9,0.8,1.3,1.7,1.3c0.4,0,0.7-0.1,0.9-0.3c0.2-0.2,0.3-0.5,0.3-0.9
			c0-0.4-0.3-0.8-0.8-1c-0.5-0.2-1-0.4-1.6-0.6c-0.6-0.3-0.8-0.7-0.8-1.3c0-0.5,0.2-0.8,0.5-1.1c0.3-0.3,0.7-0.4,1.3-0.4
			c0.5,0,0.9,0.1,1.2,0.4c0.3,0.2,0.6,0.6,0.7,1.1l-0.5,0.1c-0.2-0.7-0.7-1.1-1.4-1.1c-0.4,0-0.6,0.1-0.9,0.3
			c-0.2,0.2-0.3,0.5-0.3,0.8c0,0.2,0.1,0.4,0.2,0.6c0.2,0.2,0.5,0.4,1,0.6c0.8,0.3,1.4,0.6,1.6,0.9c0.3,0.2,0.4,0.6,0.4,1
			c0,0.5-0.2,0.9-0.5,1.2c-0.3,0.3-0.8,0.4-1.3,0.4c-0.6,0-1-0.1-1.4-0.4C97.1,92.4,96.8,92,96.7,91.4z"/>
		<path fill="#736458" d="M101.2,91.4l0.5-0.2c0.2,0.9,0.8,1.3,1.7,1.3c0.4,0,0.7-0.1,0.9-0.3c0.2-0.2,0.3-0.5,0.3-0.9
			c0-0.4-0.3-0.8-0.8-1c-0.5-0.2-1-0.4-1.6-0.6c-0.6-0.3-0.8-0.7-0.8-1.3c0-0.5,0.2-0.8,0.5-1.1c0.3-0.3,0.7-0.4,1.3-0.4
			c0.5,0,0.9,0.1,1.2,0.4c0.3,0.2,0.6,0.6,0.7,1.1l-0.5,0.1c-0.2-0.7-0.7-1.1-1.4-1.1c-0.4,0-0.6,0.1-0.9,0.3
			c-0.2,0.2-0.3,0.5-0.3,0.8c0,0.2,0.1,0.4,0.2,0.6c0.2,0.2,0.5,0.4,1,0.6c0.8,0.3,1.4,0.6,1.6,0.9c0.3,0.2,0.4,0.6,0.4,1
			c0,0.5-0.2,0.9-0.5,1.2c-0.3,0.3-0.8,0.4-1.3,0.4c-0.6,0-1-0.1-1.4-0.4C101.7,92.4,101.4,92,101.2,91.4z"/>
		<path fill="#736458" d="M110,92.9h-3.6V87h3.4v0.4h-2.9v2.2h2.1v0.4h-2.1v2.4h3V92.9z"/>
		<path fill="#736458" d="M111,92.9V87h0.9l2.8,4.9h0V87h0.5v5.9h-0.6l-3.2-5.5h0v5.5H111z"/>
		<path fill="#736458" d="M116.9,92.9V87h1.7c0.9,0,1.5,0.3,2,0.9c0.4,0.5,0.6,1.2,0.6,2.1c0,0.9-0.2,1.6-0.6,2.1
			c-0.5,0.6-1.1,0.9-2,0.9H116.9z M117.5,87.4v5h1.2c0.7,0,1.2-0.2,1.5-0.7c0.3-0.4,0.5-1.1,0.5-1.9c0-0.8-0.2-1.4-0.5-1.9
			c-0.3-0.4-0.9-0.7-1.5-0.7H117.5z"/>
	</g>
	<g>
		<path fill="#736458" d="M8.6,56.9L9,56.7c0.2,0.3,0.4,0.5,0.6,0.6c0.2,0.1,0.5,0.2,0.8,0.2c0.3,0,0.5-0.1,0.7-0.2
			c0.2-0.2,0.3-0.4,0.3-0.6c0-0.4-0.2-0.6-0.7-0.8c-0.4-0.1-0.9-0.3-1.3-0.4c-0.5-0.2-0.7-0.5-0.7-1c0-0.4,0.1-0.7,0.4-0.9
			c0.3-0.2,0.6-0.3,1-0.3c0.7,0,1.2,0.3,1.6,0.8l-0.4,0.3c-0.3-0.4-0.7-0.7-1.2-0.7c-0.6,0-0.9,0.3-0.9,0.8c0,0.3,0.2,0.5,0.7,0.7
			c0.4,0.1,0.9,0.3,1.3,0.4c0.5,0.2,0.7,0.6,0.7,1.1c0,0.4-0.2,0.7-0.5,0.9c-0.3,0.2-0.7,0.3-1.1,0.3C9.6,57.8,9,57.5,8.6,56.9z"/>
		<path fill="#736458" d="M12.3,53.3H13v-1.5h0.5v1.5h1v0.4h-1V57c0,0.3,0.2,0.5,0.5,0.5c0.1,0,0.3,0,0.5-0.1v0.4
			c-0.3,0.1-0.5,0.1-0.5,0.1c-0.4,0-0.6-0.1-0.8-0.2C13.1,57.5,13,57.3,13,57v-3.4h-0.7V53.3z"/>
		<path fill="#736458" d="M18.3,57.7h-0.5l-0.1-0.5c-0.3,0.2-0.5,0.4-0.8,0.5c-0.3,0.1-0.5,0.2-0.9,0.2c-0.4,0-0.7-0.1-0.9-0.3
			c-0.2-0.2-0.4-0.5-0.4-0.9c0-0.6,0.2-1,0.7-1.2c0.3-0.2,1-0.4,2.1-0.6v-0.3c0-0.3-0.1-0.5-0.2-0.7c-0.2-0.1-0.4-0.2-0.8-0.2
			c-0.5,0-1,0.3-1.3,0.8l-0.3-0.2c0.4-0.7,0.9-1,1.7-1c0.5,0,0.9,0.1,1.1,0.3c0.2,0.2,0.4,0.6,0.4,1.1v2.3
			C18.3,57.2,18.3,57.5,18.3,57.7z M17.8,56.7v-1.5c-1,0.2-1.6,0.4-1.9,0.7c-0.3,0.2-0.4,0.4-0.4,0.8c0,0.2,0.1,0.4,0.2,0.6
			c0.1,0.1,0.3,0.2,0.6,0.2C16.8,57.4,17.3,57.2,17.8,56.7z"/>
		<path fill="#736458" d="M23,51.5v6.2h-0.4l-0.1-0.6c-0.3,0.4-0.8,0.7-1.4,0.7c-0.6,0-1-0.2-1.3-0.6c-0.3-0.4-0.5-1-0.5-1.7
			c0-0.7,0.2-1.2,0.5-1.7c0.3-0.4,0.8-0.7,1.3-0.7c0.3,0,0.6,0.1,0.8,0.2c0.2,0.1,0.4,0.3,0.6,0.5v-2.3H23z M22.5,56.6v-2.2
			c-0.1-0.2-0.3-0.4-0.5-0.5c-0.3-0.2-0.5-0.3-0.8-0.3c-0.5,0-0.8,0.2-1,0.5c-0.2,0.4-0.4,0.8-0.4,1.4c0,0.5,0.1,1,0.3,1.3
			c0.2,0.4,0.6,0.5,1,0.5C21.7,57.4,22.1,57.1,22.5,56.6z"/>
	</g>
	<path fill-rule="evenodd" clip-rule="evenodd" fill="#736458" d="M67.3,39.4c-2.7-4-4.2-8.8-4.2-14c0-4.7,1.3-9.1,3.5-12.8
		c-3.3,1-6.4,2.2-9.2,3.4c2.9-1.9,6.5-3.7,10.5-5.4c0.6-0.8,1.3-1.6,2-2.4C65.1,3.2,58.5,0,51.1,0C37,0,25.5,11.4,25.5,25.4
		c0,2.1,0.3,4.1,0.7,6c3.1-2.6,7.4-5.2,12.6-7.5c-6,3.9-9.2,8.2-8.3,11.7C32.3,42.2,48.6,43.9,67.3,39.4z M59.3,43.9
		c-8.1,2.1-15.8,3-22.1,2.8c4,2.6,8.8,4.1,13.9,4.1c7.4,0,14.1-3.2,18.8-8.2c-0.5-0.5-0.9-1-1.3-1.6C65.6,42.1,62.5,43.1,59.3,43.9z
		"/>
	<path fill-rule="evenodd" clip-rule="evenodd" fill="#3DC3E4" d="M113.3,19.1c-3,2.6-7.3,5.1-12.5,7.4c6-3.9,9.2-8.2,8.3-11.7
		c-1.8-6.8-18.7-8.4-37.8-3.6c-1.6,0.4-3.2,0.9-4.8,1.4c-2.2,3.8-3.5,8.2-3.5,12.8c0,5.2,1.6,10,4.2,14c0.4-0.1,0.7-0.2,1.1-0.3
		c5.1-1.3,9.8-3,14-4.8c-3.7,2.4-8.5,4.8-13.9,6.7c4.7,5.9,11.9,9.7,20.1,9.7c14.1,0,25.5-11.4,25.5-25.4
		C114.1,23.2,113.8,21.1,113.3,19.1z M101.6,3.6C97.8,1.3,93.3,0,88.6,0C80,0,72.5,4.2,67.8,10.6c3.8-1.6,8-3,12.6-4.2
		C88.1,4.4,95.5,3.5,101.6,3.6z"/>
</g>
</svg>
