<?xml version="1.0" encoding="utf-8"?>
<!-- Generator: Adobe Illustrator 18.1.0, SVG Export Plug-In . SVG Version: 6.00 Build 0)  -->
<svg version="1.1" id="Layer_1" xmlns="http://www.w3.org/2000/svg" xmlns:xlink="http://www.w3.org/1999/xlink" x="0px" y="0px"
	 viewBox="0 0 12 12" enable-background="new 0 0 12 12" xml:space="preserve">
<path fill="#736458" d="M1.4,12c-0.2,0-0.3,0-0.5,0c0,0,0,0-0.1,0c-0.4-0.1-0.6-0.4-0.8-0.7c0,0,0-0.1,0-0.1c0-0.2,0-0.3,0-0.5
	c0,0,0,0,0,0c0.1-0.2,0.2-0.4,0.3-0.5c1-1,1.9-2,2.9-3C3.4,7,3.4,7,3.3,6.8C2.9,6,2.7,5.1,2.8,4.1c0.1-1,0.5-1.9,1.2-2.6
	C4.7,0.7,5.7,0.2,6.8,0c0,0,0.1,0,0.1,0c0.3,0,0.7,0,1,0c0,0,0.1,0,0.1,0c0.4,0.1,0.8,0.1,1.2,0.3C10.8,1.1,11.7,2.3,12,4
	c0,0,0,0.1,0,0.1c0,0.3,0,0.7,0,1c-0.1,0,0,0.1-0.1,0.2c-0.3,2.2-2.2,3.8-4.4,3.9c-0.9,0-1.7-0.2-2.5-0.6C4.9,8.5,5,8.5,4.8,8.7
	c-0.9,1-1.9,1.9-2.8,2.9C1.8,11.8,1.6,11.9,1.4,12C1.4,12,1.4,12,1.4,12z M7.4,7.4c1.5,0,2.8-1.2,2.8-2.8c0-1.5-1.2-2.8-2.8-2.8
	c-1.5,0-2.8,1.2-2.8,2.8C4.6,6.1,5.9,7.4,7.4,7.4z"/>
</svg>
